HIERARCHY
ROOT Hips
{
	OFFSET	0.0000	81.3154	2.8200
	CHANNELS 6 Xposition Yposition Zposition Xrotation Yrotation Zrotation
	JOINT Spine
	{
		OFFSET	0.0000	8.5301	-5.0776
		CHANNELS 3 Xrotation Yrotation Zrotation
		JOINT Spine1
		{
			OFFSET	0.0000	7.7844	0.3660
			CHANNELS 3 Xrotation Yrotation Zrotation
			JOINT Spine2
			{
				OFFSET	0.0000	9.6322	-1.9296
				CHANNELS 3 Xrotation Yrotation Zrotation
				JOINT Neck
				{
					OFFSET	0.0000	21.7059	-0.4063
					CHANNELS 3 Xrotation Yrotation Zrotation
					JOINT Head
					{
						OFFSET	0.0000	12.2576	3.3340
						CHANNELS 3 Xrotation Yrotation Zrotation
						End Site
						{
							OFFSET	0.0001	17.1270	0.5113
						}
					}
				}
				JOINT LeftShoulder
				{
					OFFSET	1.9722	20.9472	6.4590
					CHANNELS 3 Xrotation Yrotation Zrotation
					JOINT LeftArm
					{
						OFFSET	11.5222	3.0046	-4.8617
						CHANNELS 3 Xrotation Yrotation Zrotation
						JOINT LeftForeArm
						{
							OFFSET	27.1949	-0.0966	-0.2357
							CHANNELS 3 Xrotation Yrotation Zrotation
							JOINT LeftHand
							{
								OFFSET	22.6862	0.0658	-0.1359
								CHANNELS 3 Xrotation Yrotation Zrotation
								JOINT LeftHandIndex1
								{
									OFFSET	8.7925	0.7689	2.4421
									CHANNELS 3 Xrotation Yrotation Zrotation
									JOINT LeftHandIndex2
									{
										OFFSET	3.2889	-0.8020	0.5795
										CHANNELS 3 Xrotation Yrotation Zrotation
										JOINT LeftHandIndex3
										{
											OFFSET	2.2452	-0.5477	0.3958
											CHANNELS 3 Xrotation Yrotation Zrotation
											End Site
											{
												OFFSET	1.5977	-0.4769	0.2592
											}
										}
									}
								}
								JOINT LeftHandMiddle1
								{
									OFFSET	8.9238	0.8880	0.2126
									CHANNELS 3 Xrotation Yrotation Zrotation
									JOINT LeftHandMiddle2
									{
										OFFSET	4.0665	0.0113	-0.0240
										CHANNELS 3 Xrotation Yrotation Zrotation
										JOINT LeftHandMiddle3
										{
											OFFSET	2.2539	0.0068	-0.0137
											CHANNELS 3 Xrotation Yrotation Zrotation
											End Site
											{
												OFFSET	2.0246	-0.1430	0.0027
											}
										}
									}
								}
								JOINT LeftHandRing1
								{
									OFFSET	8.4571	0.5925	-2.0007
									CHANNELS 3 Xrotation Yrotation Zrotation
									JOINT LeftHandRing2
									{
										OFFSET	3.6899	-0.1868	-0.2310
										CHANNELS 3 Xrotation Yrotation Zrotation
										JOINT LeftHandRing3
										{
											OFFSET	2.1026	-0.1058	-0.1321
											CHANNELS 3 Xrotation Yrotation Zrotation
											End Site
											{
												OFFSET	1.8591	-0.2286	-0.0879
											}
										}
									}
								}
								JOINT LeftHandPinky1
								{
									OFFSET	7.8478	-0.5964	-3.4554
									CHANNELS 3 Xrotation Yrotation Zrotation
									JOINT LeftHandPinky2
									{
										OFFSET	2.2696	-0.4733	-0.6265
										CHANNELS 3 Xrotation Yrotation Zrotation
										JOINT LeftHandPinky3
										{
											OFFSET	1.6643	-0.3466	-0.4597
											CHANNELS 3 Xrotation Yrotation Zrotation
											End Site
											{
												OFFSET	1.4772	-0.4059	-0.3389
											}
										}
									}
								}
								JOINT LeftHandThumb1
								{
									OFFSET	1.8188	-1.3767	1.3788
									CHANNELS 3 Xrotation Yrotation Zrotation
									JOINT LeftHandThumb2
									{
										OFFSET	3.3864	-1.1122	2.5532
										CHANNELS 3 Xrotation Yrotation Zrotation
										JOINT LeftHandThumb3
										{
											OFFSET	2.2299	-0.7979	1.6066
											CHANNELS 3 Xrotation Yrotation Zrotation
											End Site
											{
												OFFSET	1.6398	-0.5645	1.1229
											}
										}
									}
								}
							}
						}
					}
				}
				JOINT RightShoulder
				{
					OFFSET	-1.9722	20.9472	6.4590
					CHANNELS 3 Xrotation Yrotation Zrotation
					JOINT RightArm
					{
						OFFSET	-11.5242	3.0051	-4.8625
						CHANNELS 3 Xrotation Yrotation Zrotation
						JOINT RightForeArm
						{
							OFFSET	-27.1949	-0.0966	-0.2357
							CHANNELS 3 Xrotation Yrotation Zrotation
							JOINT RightHand
							{
								OFFSET	-22.6862	0.0659	-0.1359
								CHANNELS 3 Xrotation Yrotation Zrotation
								JOINT RightHandIndex1
								{
									OFFSET	-8.7925	0.7689	2.4421
									CHANNELS 3 Xrotation Yrotation Zrotation
									JOINT RightHandIndex2
									{
										OFFSET	-3.2889	-0.8020	0.5795
										CHANNELS 3 Xrotation Yrotation Zrotation
										JOINT RightHandIndex3
										{
											OFFSET	-2.2452	-0.5477	0.3958
											CHANNELS 3 Xrotation Yrotation Zrotation
											End Site
											{
												OFFSET	-1.5977	-0.4769	0.2592
											}
										}
									}
								}
								JOINT RightHandMiddle1
								{
									OFFSET	-8.9237	0.8880	0.2126
									CHANNELS 3 Xrotation Yrotation Zrotation
									JOINT RightHandMiddle2
									{
										OFFSET	-4.0665	0.0113	-0.0240
										CHANNELS 3 Xrotation Yrotation Zrotation
										JOINT RightHandMiddle3
										{
											OFFSET	-2.2539	0.0068	-0.0137
											CHANNELS 3 Xrotation Yrotation Zrotation
											End Site
											{
												OFFSET	-2.0246	-0.1430	0.0027
											}
										}
									}
								}
								JOINT RightHandRing1
								{
									OFFSET	-8.4571	0.5925	-2.0007
									CHANNELS 3 Xrotation Yrotation Zrotation
									JOINT RightHandRing2
									{
										OFFSET	-3.6899	-0.1868	-0.2310
										CHANNELS 3 Xrotation Yrotation Zrotation
										JOINT RightHandRing3
										{
											OFFSET	-2.1026	-0.1058	-0.1321
											CHANNELS 3 Xrotation Yrotation Zrotation
											End Site
											{
												OFFSET	-1.8591	-0.2286	-0.0879
											}
										}
									}
								}
								JOINT RightHandPinky1
								{
									OFFSET	-7.8478	-0.5964	-3.4554
									CHANNELS 3 Xrotation Yrotation Zrotation
									JOINT RightHandPinky2
									{
										OFFSET	-2.2696	-0.4733	-0.6265
										CHANNELS 3 Xrotation Yrotation Zrotation
										JOINT RightHandPinky3
										{
											OFFSET	-1.6643	-0.3466	-0.4597
											CHANNELS 3 Xrotation Yrotation Zrotation
											End Site
											{
												OFFSET	-1.4772	-0.4059	-0.3389
											}
										}
									}
								}
								JOINT RightHandThumb1
								{
									OFFSET	-1.8188	-1.3767	1.3788
									CHANNELS 3 Xrotation Yrotation Zrotation
									JOINT RightHandThumb2
									{
										OFFSET	-3.3864	-1.1122	2.5532
										CHANNELS 3 Xrotation Yrotation Zrotation
										JOINT RightHandThumb3
										{
											OFFSET	-2.2299	-0.7979	1.6066
											CHANNELS 3 Xrotation Yrotation Zrotation
											End Site
											{
												OFFSET	-1.6398	-0.5645	1.1229
											}
										}
									}
								}
							}
						}
					}
				}
			}
		}
	}
	JOINT RightUpLeg
	{
		OFFSET	-10.0856	3.8558	-0.8274
		CHANNELS 3 Xrotation Yrotation Zrotation
		JOINT RightLeg
		{
			OFFSET	-0.7302	-39.6899	0.0000
			CHANNELS 3 Xrotation Yrotation Zrotation
			JOINT RightFoot
			{
				OFFSET	0.0000	-38.9731	0.0000
				CHANNELS 3 Xrotation Yrotation Zrotation
				JOINT RightToeBase
				{
					OFFSET	0.0000	-4.2835	8.9573
					CHANNELS 3 Xrotation Yrotation Zrotation
					End Site
					{
						OFFSET	0.0000	0.0000	6.0091
					}
				}
			}
		}
	}
	JOINT LeftUpLeg
	{
		OFFSET	10.0855	3.8561	-0.8274
		CHANNELS 3 Xrotation Yrotation Zrotation
		JOINT LeftLeg
		{
			OFFSET	0.7302	-39.6902	0.0000
			CHANNELS 3 Xrotation Yrotation Zrotation
			JOINT LeftFoot
			{
				OFFSET	0.0000	-38.9731	0.0000
				CHANNELS 3 Xrotation Yrotation Zrotation
				JOINT LeftToeBase
				{
					OFFSET	0.0000	-4.2835	8.9574
					CHANNELS 3 Xrotation Yrotation Zrotation
					End Site
					{
						OFFSET	0.0000	0.0000	6.0091
					}
				}
			}
		}
	}
}
MOTION
Frames:	6
Frame Time: 0.0375885000
	0.0000	81.3154	2.8200	0.000000	0.000000	0.000000	0.000000	0.000000	0.000000	0.000000	0.000000	0.000000	0.000000	0.000000	0.000000	0.000000	0.000000	0.000000	0.000000	0.000000	0.000000	0.000000	0.000000	0.000000	0.000000	0.000000	0.000000	0.000000	0.000000	0.000000	0.000000	0.000000	0.000000	0.000000	0.000000	0.000000	0.000000	0.000000	0.000000	0.000000	0.000000	0.000000	0.000000	0.000000	0.000000	0.000000	0.000000	0.000000	0.000000	0.000000	0.000000	0.000000	0.000000	0.000000	0.000000	0.000000	0.000000	0.000000	0.000000	0.000000	0.000000	0.000000	0.000000	0.000000	0.000000	0.000000	0.000000	0.000000	0.000000	0.000000	0.000000	0.000000	0.000000	0.000000	0.000000	0.000000	0.000000	0.000000	0.000000	0.000000	0.000000	0.000000	0.000000	0.000000	0.000000	0.000000	0.000000	0.000000	0.000000	0.000000	0.000000	0.000000	0.000000	0.000000	0.000000	0.000000	0.000000	0.000000	0.000000	0.000000	0.000000	0.000000	0.000000	0.000000	0.000000	0.000000	0.000000	0.000000	0.000000	0.000000	0.000000	0.000000	0.000000	0.000000	0.000000	0.000000	0.000000	0.000000	0.000000	0.000000	0.000000	0.000000	0.000000	0.000000	0.000000	0.000000	0.000000	0.000000	0.000000	0.000000	0.000000	0.000000	0.000000	0.000000	0.000000	0.000000	0.000000	0.000000	0.000000	0.000000	0.000000	0.000000	0.000000	0.000000	0.000000	0.000000	0.000000	0.000000	0.000000	0.000000	0.000000	0.000000	0.000000	0.000000	0.000000	0.000000	0.000000	0.000000	0.000000
	4.6482	77.3356	-46.6147	3.064537	-9.796380	2.287491	0.435164	0.982801	-0.556603	0.435162	0.982797	-0.556603	0.435163	0.982797	-0.556603	-5.251194	-0.042661	0.833929	9.774269	-1.466831	4.454014	0.000000	0.000001	-0.330895	-0.021745	9.613207	0.080206	-0.832183	-13.094840	0.156043	-41.405770	4.721584	2.785206	0.000000	0.000000	0.000000	0.000000	0.000000	0.000000	0.000000	0.000000	0.000000	0.000000	0.000000	0.000000	0.000000	0.000000	0.000000	0.000000	0.000000	0.000000	0.000000	0.000000	0.000000	0.000000	0.000000	0.000000	0.000000	0.000000	0.000000	0.000000	0.000000	0.000000	0.000000	0.000000	0.000000	0.000000	0.000000	0.000000	0.000000	0.000000	0.000000	0.000000	0.000000	0.000000	0.000000	0.000000	0.000000	0.000000	0.000001	-1.307118	-0.035879	-0.748921	0.378346	1.067068	2.973522	-0.352275	-41.478520	7.086437	1.481619	0.000007	0.000000	0.000000	0.000000	0.000000	0.000000	0.000000	0.000000	0.000000	0.000007	0.000000	0.000000	0.000000	0.000000	0.000000	0.000000	0.000000	0.000000	0.000007	0.000000	0.000000	0.000000	0.000000	0.000000	0.000000	0.000000	0.000000	0.000007	0.000000	0.000000	0.000000	0.000000	0.000000	0.000000	0.000000	0.000000	0.000007	0.000000	0.000000	0.000000	0.000000	0.000000	0.000000	0.000000	0.000000	-7.944282	0.436432	-5.856215	12.407290	-3.754751	2.096138	-20.490860	11.136230	2.018994	-0.000001	0.000000	0.000000	-2.819137	-0.476655	-2.552577	4.737995	-2.427687	3.052630	-14.921520	21.983060	2.914024	-0.000002	0.000001	0.000000
	4.4777	77.3819	-46.5597	3.068406	-9.329718	2.801120	0.483639	0.940130	-0.811752	0.483639	0.940128	-0.811752	0.483640	0.940129	-0.811752	-5.332025	0.196052	0.838316	9.337218	-0.433596	3.707125	0.000000	0.000000	0.280108	-0.016331	8.409113	-0.233605	0.676478	-11.592770	-0.176361	-41.856940	5.290481	4.154701	0.000000	0.000000	0.000000	-0.000003	0.000000	0.000000	0.000000	0.000000	0.000000	0.000000	0.000000	0.000000	-0.000003	0.000000	0.000000	0.000000	0.000000	0.000000	0.000000	0.000000	0.000000	-0.000003	0.000000	0.000000	0.000000	0.000000	0.000000	0.000000	0.000000	0.000000	-0.000003	0.000000	0.000000	0.000000	0.000000	0.000000	0.000000	0.000000	0.000000	-0.000003	0.000000	0.000000	0.000000	0.000000	0.000000	0.000000	0.000000	-0.236193	-0.083609	-1.449284	-0.572431	-0.326021	3.969692	-0.651659	-41.352680	7.589580	3.252992	0.000003	0.000000	0.000000	0.000000	0.000000	0.000000	0.000000	0.000000	0.000000	0.000003	0.000000	0.000000	0.000000	0.000000	0.000000	0.000000	0.000000	0.000000	0.000003	0.000000	0.000000	0.000000	0.000000	0.000000	0.000000	0.000000	0.000000	0.000003	0.000000	0.000000	0.000000	0.000000	0.000000	0.000000	0.000000	0.000000	0.000003	0.000000	0.000000	0.000000	0.000000	0.000000	0.000000	0.000000	0.000000	-7.233078	0.666946	-5.441730	9.632883	-0.835667	0.377621	-20.564790	8.726222	1.586020	0.000002	0.000000	0.000000	-1.617096	-0.422189	-3.437244	1.152808	0.502952	4.227687	-13.935800	18.885100	2.328865	0.000003	-0.000001	0.000000
	4.7342	77.8527	-46.4613	1.255225	-5.774931	0.649250	1.165405	0.771645	-0.018874	1.165405	0.771644	-0.018874	1.165405	0.771644	-0.018874	-5.395735	0.036241	0.583610	8.494208	-0.796398	2.929853	0.000000	0.000001	-0.233732	-0.002742	4.528451	-1.270049	-0.920692	-9.704924	1.051227	-42.399780	5.943154	4.177609	0.000000	0.000000	0.000000	0.000000	0.000000	0.000000	-0.000003	0.000000	0.000000	0.000000	0.000000	0.000000	0.000000	0.000000	0.000000	-0.000003	0.000000	0.000000	0.000000	0.000000	0.000000	0.000000	0.000000	0.000000	-0.000003	0.000000	0.000000	0.000000	0.000000	0.000000	0.000000	0.000000	0.000000	-0.000003	0.000000	0.000000	0.000000	0.000000	0.000000	0.000000	0.000000	0.000000	-0.000003	0.000000	0.000000	-0.000001	0.000001	-0.147203	-0.117403	-5.120071	-0.091116	-1.477340	6.173768	-1.747494	-42.376910	7.907603	4.200787	-0.000003	0.000000	0.000000	0.000000	0.000000	0.000000	0.000000	0.000000	0.000000	-0.000003	0.000000	0.000000	0.000000	0.000000	0.000000	0.000000	0.000000	0.000000	-0.000003	0.000000	0.000000	0.000000	0.000000	0.000000	0.000000	0.000000	0.000000	-0.000003	0.000000	0.000000	0.000000	0.000000	0.000000	0.000000	0.000000	0.000000	-0.000003	0.000000	0.000000	0.000000	0.000000	0.000000	0.000000	0.000000	0.000000	-1.417476	0.363243	-3.779502	3.725631	-0.749828	1.099964	-19.149190	6.168165	1.041432	0.000002	0.000000	0.000000	-0.066533	-0.400561	-2.382186	0.376966	-0.015135	4.556369	-13.886970	18.417060	2.262113	-0.000003	0.000001	0.000000
	4.7338	77.8685	-46.4199	1.143190	-5.565513	0.535052	1.161487	0.753283	0.019688	1.161487	0.753283	0.019688	1.161486	0.753284	0.019688	-5.403678	0.040693	0.564613	8.402872	-0.761612	2.832401	0.000000	0.000000	-0.243529	-0.024260	4.254492	-1.261784	-0.924634	-9.534312	1.035326	-43.426150	0.941878	1.709105	0.000003	0.000000	0.000000	0.000000	0.000000	0.000000	0.000000	0.000000	0.000000	0.000003	0.000000	0.000000	0.000000	0.000000	0.000000	0.000000	0.000000	0.000000	0.000003	0.000000	0.000000	0.000000	0.000000	0.000000	0.000000	0.000000	0.000000	0.000003	0.000000	0.000000	0.000000	0.000000	0.000000	0.000000	0.000000	0.000000	0.000003	0.000000	0.000000	0.000000	0.000000	0.000000	0.000000	0.000000	0.000000	0.000001	-0.000001	-0.151474	-0.155137	-5.165167	-0.078870	-1.476950	6.166260	-1.746090	-43.139610	4.058366	2.828030	-0.000003	0.000000	0.000000	-0.000003	0.000000	0.000000	0.000000	0.000000	0.000000	-0.000003	0.000000	0.000000	-0.000003	0.000000	0.000000	0.000000	0.000000	0.000000	-0.000003	0.000000	0.000000	-0.000003	0.000000	0.000000	0.000000	0.000000	0.000000	-0.000003	0.000000	0.000000	-0.000003	0.000000	0.000000	0.000000	0.000000	0.000000	-0.000003	0.000000	0.000000	-0.000003	0.000000	0.000000	0.000000	0.000000	0.000000	0.594870	0.287821	-4.306728	-0.155828	-0.715726	2.125775	-14.006660	7.468915	0.918790	0.000001	0.000001	0.000000	0.124895	-0.335428	-2.063139	0.037582	-0.026014	3.983659	-12.999460	19.306910	2.220426	0.000001	0.000001	0.000000
	4.7530	77.8984	-46.4102	1.212492	-5.459702	0.489543	1.154236	0.734677	0.060132	1.154236	0.734676	0.060132	1.154235	0.734675	0.060132	-5.412267	0.045451	0.544872	8.302991	-0.724965	2.730911	0.000000	0.000001	-0.252898	-0.034988	4.311221	-1.439730	-0.913706	-9.512714	1.130169	-39.621770	2.284425	0.382614	0.000007	0.000000	0.000000	0.000003	0.000000	0.000001	0.000000	0.000000	0.000000	0.000007	0.000000	0.000000	0.000003	0.000000	0.000001	0.000000	0.000000	0.000000	0.000007	0.000000	0.000000	0.000003	0.000000	0.000001	0.000000	0.000000	0.000000	0.000007	0.000000	0.000000	0.000003	0.000000	0.000001	0.000000	0.000000	0.000000	0.000007	0.000000	0.000000	0.000003	0.000000	0.000001	0.000000	0.000000	0.000000	0.000000	0.000001	-0.156384	-0.193264	-5.307342	-0.074879	-1.467447	6.373423	-1.798806	-40.244420	1.058970	2.434734	0.000000	0.000000	0.000000	-0.000003	0.000000	0.000000	0.000000	0.000000	0.000000	0.000000	0.000000	0.000000	-0.000003	0.000000	0.000000	0.000000	0.000000	0.000000	0.000000	0.000000	0.000000	-0.000003	0.000000	0.000000	0.000000	0.000000	0.000000	0.000000	0.000000	0.000000	-0.000003	0.000000	0.000000	0.000000	0.000000	0.000000	0.000000	0.000000	0.000000	-0.000003	0.000000	0.000000	0.000000	0.000000	0.000000	1.423654	0.252398	-4.143740	-1.832819	-0.677442	2.138711	-12.951120	4.869189	0.552999	-0.000001	0.000000	0.000000	-0.201679	-0.260882	-2.007595	0.649886	0.000051	4.351051	-13.736860	15.222930	1.844370	0.000001	-0.000002	0.000000
